<?xml version="1.0" standalone="no"?>
<!DOCTYPE svg PUBLIC "-//W3C//DTD SVG 20010904//EN"
 "http://www.w3.org/TR/2001/REC-SVG-20010904/DTD/svg10.dtd">
<svg version="1.0" xmlns="http://www.w3.org/2000/svg"
 width="16.000000pt" height="16.000000pt" viewBox="0 0 16.000000 16.000000"
 preserveAspectRatio="xMidYMid meet">
<metadata>
Created by potrace 1.11, written by Peter Selinger 2001-2013
</metadata>
<g transform="translate(0.000000,16.000000) scale(0.006154,-0.006154)"
fill="#000000" stroke="none">
<path d="M640 1311 l0 -671 78 0 78 0 -1 211 c0 116 2 212 6 214 3 3 24 7 46
11 37 6 42 4 48 -17 4 -13 21 -52 36 -87 16 -34 29 -65 29 -68 0 -3 7 -20 15
-37 8 -18 32 -75 54 -127 l40 -95 90 -3 90 -3 -70 153 c-99 215 -104 226 -133
292 l-26 58 45 40 c90 79 132 189 132 339 0 279 -159 437 -459 456 l-98 6 0
-672z m272 468 c82 -42 128 -145 123 -274 -5 -130 -50 -210 -141 -252 -30 -13
-64 -23 -76 -21 l-23 3 0 280 c-1 154 1 285 3 292 4 13 58 0 114 -28z"/>
<path d="M1727 1969 c-142 -32 -270 -166 -331 -349 -44 -133 -54 -351 -21
-505 21 -102 90 -246 149 -312 92 -103 231 -169 366 -176 l70 -4 0 319 0 318
-78 0 -78 0 0 -225 c1 -124 -3 -225 -7 -225 -26 0 -111 56 -149 99 -68 76
-100 149 -122 281 -43 265 48 544 201 612 43 19 113 26 149 14 16 -5 25 5 52
54 17 33 32 64 32 68 0 26 -162 47 -233 31z"/>
</g>
</svg>
